<?xml version="1.0" encoding="UTF-8"?>
<svg id="Layer_1" data-name="Layer 1" xmlns="http://www.w3.org/2000/svg" viewBox="0 0 1275.52 2058.73">
  <defs>
    <style>
      .cls-1 {
        fill: #f29f05;
        stroke-width: 0px;
      }
    </style>
  </defs>
  <path class="cls-1" d="m1009.95,1559.44c68.61,23.47,136.33,47.85,193.2,93.89,92.09,73.13,96.6,171.54,11.74,251.89-14.44,13.54-31.6,26.18-48.75,36.11-96.6,56.88-202.23,85.77-312.38,101.12-83.96,11.74-167.92,18.96-251.89,15.35-144.45-6.32-287.1-25.28-419.81-90.28-41.53-20.76-79.45-46.04-111.95-80.35-57.78-61.39-59.59-136.33-5.42-201.33,22.57-27.08,51.46-46.95,80.35-65.91,73.13-43.34,151.67-71.32,234.73-84.87,9.93-1.81,18.96-6.32,28.89-7.22,11.74-.9,24.38-.9,27.99,12.64,3.61,14.44-6.32,23.47-18.96,27.08-27.99,8.13-56.88,12.64-83.96,25.28-44.24,21.67-91.18,38.82-130.91,69.52-46.04,35.21-68.61,86.67-52.36,128.2,14.44,37.02,42.43,63.2,75.84,83.06,13.54,8.13,27.99,14.44,41.53,22.57,9.93,8.13,21.67,10.83,33.4,14.44,83.06,32.5,170.63,46.04,259.11,54.17,111.95,10.83,222.09,0,331.33-23.47,74.93-16.25,148.06-40.63,208.55-90.28,46.95-37.92,62.29-81.25,44.24-127.3-9.93-25.28-30.7-41.53-50.56-57.78-46.95-47.85-106.53-70.42-169.73-83.96-16.25,0-30.7-8.13-46.95-8.13-13.54-5.42-30.7-2.71-40.63-17.15-10.83-26.18-8.13-31.6,18.96-32.5,37.02-.9,72.23,10.83,107.44,19.86,17.15,5.42,32.5,8.12,46.95,15.35Z"/>
  <path class="cls-1" d="m455.62,1599.16c-39.72,12.64-78.54,27.99-110.14,56.88-45.14,42.43-41.53,93.89,9.03,130.91,40.63,29.79,86.67,48.75,135.42,57.78,138.13,25.28,274.46,27.08,407.17-27.99,21.67-9.03,41.53-21.67,58.68-38.82,42.43-42.43,40.63-89.38-6.32-127.3-22.57-17.15-46.95-30.7-74.03-38.82-28.89-.9-56.88-4.51-78.54-27.99.9-27.08,20.77-24.38,38.82-26.18,9.93,4.51,18.96,9.03,29.79,8.13,13.54,6.32,29.79,6.32,43.34,12.64,16.25,4.51,33.4,6.32,48.75,11.74,34.31,17.15,67.71,36.11,92.99,65.91,45.14,51.46,44.24,111.05-3.61,159.8-13.54,13.54-26.18,27.99-41.53,39.72-95.7,55.07-200.43,73.13-309.67,78.55-124.59,6.32-243.76-10.83-359.32-55.97-42.43-16.25-75.84-44.24-103.82-78.55-37.02-46.04-28.89-114.66,18.96-157.99,22.57-20.76,48.75-35.21,77.64-46.95,23.47-4.51,45.14-14.44,66.81-22.57,18.96-6.32,37.02-5.42,55.97-4.51,9.03,0,15.35,4.51,17.15,13.54,6.32,14.44-7.22,13.54-13.54,18.06Z"/>
  <path class="cls-1" d="m699.38,1794.17c-62.29,7.22-123.69.9-183.27-15.35-18.06-4.51-36.11-12.64-53.27-21.67-28.89-15.35-55.07-35.21-50.56-72.23,4.51-37.92,35.21-55.07,66.81-69.52,8.13-3.61,17.15-6.32,24.38,2.71,8.13,9.03.9,16.25-3.61,24.38-24.38,38.82-18.96,60.49,24.38,78.55,82.16,35.21,166.12,32.5,250.08,1.81,10.83-4.51,21.67-11.74,30.7-19.86,22.57-20.76,20.77-38.82-2.71-59.59-12.64-10.83-31.6-14.44-33.4-35.21,23.47-9.93,46.95-7.22,69.52,2.71,11.74,7.22,23.47,12.64,34.31,20.76,30.7,21.67,40.63,61.39,22.57,95.7-28.89,54.17-138.13,92.09-195.91,66.81Z"/>
  <path class="cls-1" d="m1223.02,408.34c-33.4-92.09-88.48-167.92-158.9-234.73-75.84-72.23-164.31-122.78-264.53-149.87C637.09-20.5,479.09-3.34,330.13,78.81c-71.32,39.72-134.52,89.38-184.18,155.29-16.25,21.67-32.5,43.34-48.75,65.91C34,393.9,5.11,499.53.6,610.57c-6.32,139.94,37.92,266.33,106.53,384.6,141.74,244.66,305.15,473.08,493.84,684.34,23.47,26.18,36.11,27.08,60.49,1.81,47.85-48.75,90.28-102.92,133.62-155.29,95.7-115.56,184.18-237.44,263.62-365.64,65-104.73,134.52-207.65,170.63-328.63,43.34-142.64,44.24-283.49-6.32-423.42Zm-489.33,951.57c-27.99,34.31-55.97,66.81-83.06,102.02-11.74,15.35-20.77,17.15-33.4.9-28.89-36.11-58.68-71.32-87.57-107.44-10.83-12.64-12.64-22.57,9.03-22.57,17.15.9,19.86-9.93,21.67-23.47,3.61-37.02,8.13-74.03,10.83-111.05,1.81-18.96,9.03-24.38,27.08-25.28,92.99-3.61,92.99-4.51,103.82,86.67,1.81,13.54,3.61,27.08,4.51,40.63,1.81,17.15.9,35.21,27.08,32.5,5.42-.9,11.74.9,10.83,10.83-3.61,5.42-7.22,10.83-10.83,16.25Zm27.08-720.45h-148.06c-21.67,0-28.89-1.81-21.67-27.99,13.54-46.04,40.63-63.2,87.57-65.91,64.1-2.71,127.3-7.22,191.4,3.61,34.31,5.42,65.91,45.14,65,78.55,0,15.35-11.74,10.83-19.86,10.83-51.46.9-102.92.9-154.38.9Zm107.44,83.06c-.9,11.74-8.13,17.15-20.77,17.15h-168.83c-15.35,0-25.28-8.13-24.38-21.67.9-13.54,15.35-9.93,24.38-9.93,27.99-.9,55.97,0,83.96,0h83.96c10.83,0,22.57-.9,21.67,14.44Zm-255.5-25.28c15.35,6.32,30.7,15.35,27.08,33.4-4.51,18.06-22.57,5.42-32.5,9.03-35.21,0-65-4.51-80.35-38.82-3.61-8.13-5.42-18.06-.9-26.18,6.32-9.93,16.25-3.61,24.38-.9,19.86,8.13,41.53,15.35,62.29,23.47Zm55.07,281.68c4.51,32.5-22.57,18.06-34.31,22.57-17.15-1.81-39.72,6.32-35.21-22.57,2.71-22.57-7.22-51.46,37.02-50.56,41.53.9,29.79,29.79,32.5,50.56Zm15.35,126.39c0,44.24-37.02,10.83-53.27,24.38-16.25-11.74-50.56,18.06-48.75-26.18q1.81-68.61,51.46-68.61c46.95,0,51.46,4.51,50.56,70.42Zm-42.43-248.28c34.31-35.21,195.91-37.02,241.05,0h-241.05Zm358.42-167.92c-6.32,34.31-28.89,50.56-81.25,51.46-9.03-4.51-27.99,9.03-31.6-11.74-2.71-17.15,8.13-30.7,24.38-37.02,22.57-9.03,46.95-15.35,70.42-21.67,14.44-2.71,20.76,3.61,18.06,18.96Zm67.71,129.1c-2.71,6.32-5.42,12.64-8.13,18.06-5.42,9.93-11.74,22.57-25.28,18.06-11.74-3.61-8.13-17.15-8.13-27.08-.9-37.92-1.81-76.74-.9-114.66,0-25.28-6.32-46.95-23.47-65-11.74-13.54-8.13-20.76,4.51-28.89,7.22-5.42,20.77-7.22,17.15-20.76-.9-2.71-7.22-5.42-10.83-6.32-11.74-1.81-25.28-5.42-33.4,8.13-3.61,5.42-4.51,11.74-8.13,20.76-15.35-9.03-18.06-24.38-21.67-37.02-9.93-27.99-26.18-44.24-56.88-50.56-85.77-16.25-172.44-12.64-258.21-2.71-27.99,3.61-46.04,19.86-55.97,47.85-5.42,15.35-9.03,32.5-26.18,45.14-8.13-31.6-25.28-44.24-59.59-21.67,52.36,17.15,36.11,44.24,13.54,70.42-8.13,51.46-2.71,102.92-2.71,154.38,0,24.38-4.51,35.21-31.6,32.5-18.96-1.81-37.92-2.71-56.88,0-28.89,3.61-37.92-9.03-34.31-36.11.9-4.51,0-9.03,0-13.54,0-6.32,1.81-12.64,8.13-12.64,34.31,1.81,38.82-23.47,43.34-48.75,7.22-38.82,0-75.84-11.74-111.95-9.93-20.76-28.89-22.57-48.75-23.47-88.48-2.71-93.89,2.71-93.89,90.28,0,14.44.9,29.79,0,44.24-2.71,27.99,9.03,45.14,35.21,53.27,13.54,13.54,1.81,32.5,9.93,46.95.9,6.32.9,12.64-6.32,12.64-31.6.9-63.2.9-94.8,0-11.74,0-14.44-12.64-18.96-21.67-90.28-202.23-32.5-441.48,139.03-573.29,179.66-137.23,417.1-134.52,589.54,6.32,158.9,131.81,214.87,356.61,136.33,547.11Z"/>
  <path class="cls-1" d="m383.39,801.97q-1.81,53.27,50.56,53.27c70.42-.9,59.59,6.32,61.39-60.49.9-40.63-8.13-82.16,8.13-122.78,0,54.17-1.81,108.34-.9,161.6,0,21.67-7.22,30.7-28.89,29.79-29.79-1.81-67.71,9.93-88.48-4.51-24.38-16.25-3.61-55.97-8.13-84.87-.9-9.03-2.71-18.06-3.61-26.18,1.81-5.42,5.42-9.03,11.74-9.93,8.13,2.71,10.83,9.03,10.83,17.15-4.51,15.35,0,33.4-12.64,46.95Z"/>
  <path class="cls-1" d="m321.1,848.02c-11.74-11.74-1.81-30.7-14.44-41.53-23.47-35.21-18.06-61.39,16.25-78.55,9.03,0,16.25,3.61,19.86,12.64-17.15,4.51-21.67,16.25-21.67,33.4.9,24.38,0,48.75,0,74.03Z"/>
  <path class="cls-1" d="m381.59,741.48c-15.35-17.15-34.31-15.35-53.27-9.03-34.31,16.25-15.35,48.75-21.67,74.03-42.43,3.61-45.14,1.81-45.14-38.82v-121.88c0-18.96,5.42-34.31,24.38-40.63,41.53-12.64,83.96-11.74,126.39-2.71,11.74,2.71,18.06,12.64,24.38,22.57,8.13,54.17,1.81,109.24,3.61,163.41.9,17.15-10.83,21.67-26.18,22.57-15.35.9-22.57-6.32-23.47-20.76-.9-12.64-1.81-24.38,0-37.02-.9-6.32-3.61-9.93-9.03-11.74Z"/>
  <path class="cls-1" d="m422.22,556.41c-18.06,4.51-37.02,7.22-54.17,16.25-11.74,6.32-24.38,7.22-36.11.9-23.47-11.74-48.75-15.35-80.35-20.76,59.59-27.99,113.76-39.72,170.63-9.93,4.51,4.51,4.51,9.03,0,13.54Z"/>
  <path class="cls-1" d="m422.22,556.41v-13.54c8.13-.9,20.77-2.71,20.77,7.22,0,10.83-12.64,7.22-20.77,6.32Z"/>
</svg>